<svg xmlns="http://www.w3.org/2000/svg" viewBox="0 0 512 512" style="height: 512px; width: 512px;"><path d="M0 0h512v512H0z" fill="#ffffff" fill-opacity="1"></path><g class="" transform="translate(0,0)" style="touch-action: none;"><path d="M122.31 84.615l-2.85 8.54-11.394 34.185-5.703-5.703L96 115.27 83.27 128l6.367 6.363 26.297 26.297 20.605-61.814 2.845-8.537-17.076-5.695zM151 119v18h242v-18H151zm0 64v18h242v-18H151zm0 64v18h242v-18H151zm-28.69 29.615l-2.85 8.54-11.394 34.185-5.703-5.703L96 307.27 83.27 320l6.367 6.363 26.297 26.297 20.605-61.814 2.845-8.537-17.076-5.695zM151 311v18h242v-18H151zm0 64v18h242v-18H151z" fill="#000000" fill-opacity="1"></path></g><g class="" transform="translate(256,256)" style="touch-action: none;"><g transform="translate(3.2, 3.2) scale(0.9, 0.9) rotate(0, 128, 128)"><circle cx="128" cy="128" r="128" fill="#ffffff" fill-opacity="1"></circle><circle stroke="#000000" stroke-opacity="1" fill="#ffffff" fill-opacity="1" stroke-width="18" cx="128" cy="128" r="101"></circle><path fill="#000000" fill-opacity="1" d="M89.725 93.62H56.354c6.003 14.567 19.228 28.56 33.371 31.882v12.375h21.982C107.158 149.336 99.13 157.776 89.76 166H80.2v12.016h106.73V166h-10.288c-10.785-8.218-18.788-16.646-23.131-28.123h23.894v-10.956c7.244-2.226 12.263-5.266 22.24-17.77-7.437-6.578-14.725-10.229-22.24-11.989V81.984h-87.68z"></path></g></g></svg>